<?xml version="1.0" encoding="utf-8"?>
<!-- Generator: Adobe Illustrator 16.0.0, SVG Export Plug-In . SVG Version: 6.00 Build 0)  -->
<!DOCTYPE svg PUBLIC "-//W3C//DTD SVG 1.1//EN" "http://www.w3.org/Graphics/SVG/1.1/DTD/svg11.dtd">
<svg version="1.1" id="Capa_1" xmlns="http://www.w3.org/2000/svg" xmlns:xlink="http://www.w3.org/1999/xlink" x="0px" y="0px"
	 width="595.279px" height="841.89px" viewBox="0 0 595.279 841.89" enable-background="new 0 0 595.279 841.89"
	 xml:space="preserve">
<g>
	<g>
		<path fill="#FFFFFF" d="M297.64,123.305C133.269,123.305,0,256.573,0,420.945c0,164.371,133.269,297.64,297.64,297.64
			c164.372,0,297.64-133.27,297.64-297.64C595.28,256.536,462.012,123.305,297.64,123.305z M374.58,420.908l-48.776,0.038
			l-0.037,178.583h-66.932V420.945H214.19v-61.537l44.646-0.038l-0.074-36.238c0-50.227,13.617-80.772,72.735-80.772h49.26v61.575
			H349.95c-23.03,0-24.146,8.594-24.146,24.629l-0.074,30.806h55.361L374.58,420.908z"/>
	</g>
</g>
</svg>
