<?xml version="1.0" encoding="utf-8"?>
<!-- Generator: Adobe Illustrator 16.0.0, SVG Export Plug-In . SVG Version: 6.00 Build 0)  -->
<!DOCTYPE svg PUBLIC "-//W3C//DTD SVG 1.1//EN" "http://www.w3.org/Graphics/SVG/1.1/DTD/svg11.dtd">
<svg version="1.1" id="Capa_1" xmlns="http://www.w3.org/2000/svg" xmlns:xlink="http://www.w3.org/1999/xlink" x="0px" y="0px"
	 width="595.279px" height="841.89px" viewBox="0 0 595.279 841.89" enable-background="new 0 0 595.279 841.89"
	 xml:space="preserve">
<g>
	<path fill="#FFFFFF" d="M297.64,123.305C133.269,123.305,0,256.573,0,420.945c0,164.371,133.269,297.64,297.64,297.64
		c164.372,0,297.64-133.27,297.64-297.64C595.28,256.536,462.012,123.305,297.64,123.305z M445.716,354.125l0.223,9.487
		c0,96.881-73.703,208.497-208.496,208.497c-41.372,0-79.88-12.129-112.322-32.926c5.729,0.67,11.571,1.041,17.486,1.041
		c34.34,0,65.928-11.719,91.004-31.363c-32.071-0.596-59.119-21.803-68.458-50.896c4.502,0.855,9.041,1.266,13.804,1.266
		c6.696,0,13.17-0.857,19.31-2.531c-33.522-6.771-58.784-36.349-58.784-71.842v-0.93c9.896,5.506,21.17,8.78,33.187,9.189
		c-19.644-13.133-32.592-35.568-32.592-60.979c0-13.431,3.609-26.006,9.897-36.833c36.126,44.349,90.147,73.517,151.052,76.568
		c-1.265-5.357-1.897-10.976-1.897-16.705c0-40.442,32.814-73.256,73.294-73.256c21.058,0,40.106,8.892,53.501,23.141
		c16.668-3.311,32.368-9.413,46.543-17.784c-5.469,17.114-17.077,31.476-32.22,40.553c14.771-1.749,28.946-5.729,42.079-11.534
		C472.503,330.946,460.039,343.856,445.716,354.125z"/>
</g>
</svg>
