<?xml version="1.0" encoding="utf-8"?>
<!-- Generator: Adobe Illustrator 16.0.0, SVG Export Plug-In . SVG Version: 6.00 Build 0)  -->
<!DOCTYPE svg PUBLIC "-//W3C//DTD SVG 1.1//EN" "http://www.w3.org/Graphics/SVG/1.1/DTD/svg11.dtd">
<svg version="1.1" id="Capa_1" xmlns="http://www.w3.org/2000/svg" xmlns:xlink="http://www.w3.org/1999/xlink" x="0px" y="0px"
	 width="595.279px" height="841.89px" viewBox="0 0 595.279 841.89" enable-background="new 0 0 595.279 841.89"
	 xml:space="preserve">
<g>
	<g>
		<g>
			<path fill="#FFFFFF" d="M297.64,123.305C133.269,123.305,0,256.573,0,420.945c0,164.371,133.269,297.64,297.64,297.64
				c164.372,0,297.64-133.27,297.64-297.64C595.28,256.536,462.012,123.305,297.64,123.305z M480.502,487.58
				c-2.009,24.777-20.834,56.402-47.139,60.979c-84.27,6.549-184.127,5.73-271.41,0c-27.234-3.422-45.13-36.238-47.139-60.979
				c-4.241-52.014-4.241-81.628,0-133.641c2.009-24.742,20.352-57.37,47.139-60.347c86.278-7.255,186.694-5.692,271.41,0
				c30.285,1.116,45.13,32.331,47.139,57.11C484.669,402.715,484.669,435.566,480.502,487.58z"/>
			<polygon fill="#FFFFFF" points="260.435,495.355 372.05,420.945 260.435,346.535 			"/>
		</g>
	</g>
</g>
</svg>
