<?xml version="1.0" encoding="utf-8"?>
<!-- Generator: Adobe Illustrator 16.0.0, SVG Export Plug-In . SVG Version: 6.00 Build 0)  -->
<!DOCTYPE svg PUBLIC "-//W3C//DTD SVG 1.1//EN" "http://www.w3.org/Graphics/SVG/1.1/DTD/svg11.dtd">
<svg version="1.1" id="Layer_1" xmlns="http://www.w3.org/2000/svg" xmlns:xlink="http://www.w3.org/1999/xlink" x="0px" y="0px"
	 width="117.928px" height="303.866px" viewBox="0 0 117.928 303.866" enable-background="new 0 0 117.928 303.866"
	 xml:space="preserve">
<g>
	<g>
		<path fill="#FFFFFF" d="M96.343,296.433H21.587c-7.512,0-13.623-6.075-13.623-13.542V20.975c0-7.468,6.111-13.542,13.623-13.542
			h74.756c7.511,0,13.621,6.074,13.621,13.542v261.916C109.964,290.358,103.854,296.433,96.343,296.433z M21.587,10.433
			c-5.857,0-10.623,4.729-10.623,10.542v261.916c0,5.813,4.766,10.542,10.623,10.542h74.756c5.856,0,10.621-4.729,10.621-10.542
			V20.975c0-5.813-4.765-10.542-10.621-10.542H21.587z"/>
	</g>
	<circle fill="#FFFFFF" cx="58.803" cy="35.646" r="15.558"/>
	<path fill="none" stroke="#000000" d="M55.146,196.225"/>
	<path fill="#FFFFFF" d="M51.259,54.69"/>
	<g>
		<path fill="#FFFFFF" d="M69.154,60.033c0.899-3.626,4.614-0.954,8.255,5.939l14.107,26.71c4.795,7.149,9.057,9.904,3.438,14.495
			c-3.596,2.938-5.824-1.359-8.859-5.257c-1.709-2.199-12.141-22.666-12.141-22.666C70.415,72.309,68.255,63.659,69.154,60.033z"/>
	</g>
	<path stroke="#000000" d="M60.399,195.762"/>
	<path fill="#FFFFFF" d="M61.565,54.128"/>
	<path fill="none" stroke="#000000" d="M57.218,193.904"/>
	<path fill="#FFFFFF" d="M57.294,54.128"/>
	<path fill="none" stroke="#000000" d="M61.862,192.51"/>
	<path fill="#FFFFFF" d="M62.878,54.128"/>
	<g>
		<path fill="#FFFFFF" d="M47.968,60.036c-0.6-3.565-4.093-0.856-7.764,6.021L25.376,93.838c-4.795,7.152-9.055,9.906-3.438,14.497
			c3.596,2.938,8.254-4.145,11.287-8.041c1.709-2.2,10.045-20.837,10.045-20.837C46.453,72.341,48.567,63.602,47.968,60.036z"/>
	</g>
	<path stroke="#000000" d="M57.218,193.904"/>
	<path fill="#FFFFFF" d="M52.571,53.47"/>
	<path fill="none" stroke="#000000" d="M61.862,192.51"/>
	<path fill="#FFFFFF" d="M56.841,53.47"/>
	<path fill="#FFFFFF" d="M44.19,37.897c0,0-4.16,10.084-4.16,11.688s-0.346,0.916-0.346,0.916s-1.387,0.917-1.732,2.292
		c-0.348,1.375,0,3.209,0,3.209s2.078-1.146,2.771-2.292c0.693-1.146,0.346-2.292,0.346-2.292s5.201-4.125,6.932-6.875"/>
	<path fill="#FFFFFF" d="M73.394,37.897c0,0,4.158,10.084,4.158,11.688s0.346,0.916,0.346,0.916s1.389,0.917,1.732,2.292
		c0.348,1.375,0,3.209,0,3.209s-2.078-1.146-2.771-2.292c-0.693-1.146-0.346-2.292-0.346-2.292s-5.201-4.125-6.932-6.875"/>
	<g>
		<path fill="none" d="M57.817,60.806c0,0,0.302-0.414,0.787-1.042c-0.217-0.086-0.448-0.139-0.693-0.139
			c-0.279,0-0.543,0.063-0.783,0.172c0.039,0.072,0.095,0.154,0.127,0.223C58.38,62.381,57.817,60.806,57.817,60.806z"/>
		<path fill="#FFFFFF" d="M58.604,59.764c1.184-1.534,3.485-4.383,5.36-5.876c-0.804-0.067-1.72-0.058-2.876-0.021
			c-4.916-0.081-7.028-0.401-8.972,0.212c1.621,1.561,4.134,4.113,5.011,5.719c0.24-0.109,0.504-0.172,0.783-0.172
			C58.156,59.625,58.388,59.678,58.604,59.764z"/>
		<path fill="#FFFFFF" d="M92.769,127.156c-1.861-5.573-13.471-21.826-16.256-25.544c-2.744-3.658-1.395-19.04-2.322-25.542
			c-0.93-6.502,2.785-13.235-3.252-18.344c-0.956-0.81-1.743-1.447-2.443-1.961c-2.139,1.572-5.801,4.252-8.248,5.978
			c1.73,0.474,2.637,4.181,2.637,4.181s-0.752,0-2.063-0.196c-0.98-0.146-1.748-1.491-2.078-2.17
			c-0.253,0.126-0.533,0.203-0.832,0.203c-0.094,1.574-3.283,3.738-3.283,3.738s0-0.786-0.189-2.952
			c-0.118-1.363,0.805-2.023,1.505-2.326c-2.127-1.345-5.563-3.673-7.588-5.871c-0.463,0.369-0.957,0.774-1.519,1.25
			c-6.037,5.108-2.324,11.842-3.252,18.344s0.422,21.884-2.32,25.542c-2.787,3.716-14.396,19.971-16.254,25.542
			c-1.859,5.573,3.25,6.038,3.25,6.038l17.646,1.856l2.107,43.657c0.313,2.162,0.803,8.857,2.928,12.449
			c2.455,4.156,12.4,2.412,12.4,2.412v-0.264c1.312-0.443,2.549-1.179,3.418-2.398c1.643-2.303,2.904-6.444,3.25-13.002
			l1.857-42.726l17.646-1.858C89.515,133.192,94.624,132.728,92.769,127.156z"/>
		<path fill="#B71318" d="M56.019,62.19c-0.025,0.011-0.049,0.02-0.075,0.03c0.028,0.019,0.062,0.04,0.089,0.058
			C56.024,62.25,56.026,62.218,56.019,62.19z"/>
	</g>
	<g>
		<path fill="#FFFFFF" d="M66.976,268.999h2.622c-0.386-3.951-0.772-8.835-1.16-14.651
			C67.661,261.027,67.174,265.911,66.976,268.999z"/>
		<path fill="#FFFFFF" d="M51.666,232.256v-12.312c0-1.436-0.03-2.355-0.09-2.76s-0.196-0.702-0.409-0.891
			c-0.215-0.189-0.615-0.284-1.205-0.284v20.846c0.777,0,1.256-0.238,1.436-0.715C51.576,235.665,51.666,234.37,51.666,232.256z"/>
		<path fill="#FFFFFF" d="M93.956,203.254h-70.33c-3.885,0-7.033,3.148-7.033,7.033v70.33c0,3.885,3.148,7.033,7.033,7.033h70.33
			c3.885,0,7.033-3.148,7.033-7.033v-70.33C100.989,206.403,97.841,203.254,93.956,203.254z M83.532,210.588h4.509l3.022,14.269
			v-14.269h4.509v31.688h-4.727l-2.805-14.405v14.405h-4.509V210.588z M72.633,210.588h8.991v6.342h-3.599v6.009h3.368v6.028h-3.368
			v6.969h3.957v6.341h-9.35V210.588z M22.399,222c0-3.027,0.106-5.226,0.32-6.596c0.213-1.37,0.826-2.626,1.838-3.769
			c1.012-1.142,2.32-1.712,3.926-1.712c1.579,0,2.891,0.496,3.932,1.487c1.042,0.992,1.721,2.17,2.037,3.533
			c0.315,1.363,0.474,3.344,0.474,5.94v1.37h-5.393v-2.878c0-1.813-0.052-2.948-0.153-3.405c-0.103-0.457-0.346-0.686-0.73-0.686
			c-0.333,0-0.559,0.196-0.679,0.588s-0.179,1.396-0.179,3.014v15.209c0,1.422,0.059,2.358,0.179,2.809s0.358,0.675,0.718,0.675
			c0.393,0,0.659-0.254,0.801-0.763c0.141-0.51,0.211-1.501,0.211-2.976v-3.758h-1.089v-4.815h6.314v17.009h-3.389l-0.499-2.271
			c-0.367,0.979-0.831,1.713-1.391,2.202s-1.22,0.734-1.98,0.734c-0.906,0-1.754-0.336-2.544-1.008s-1.391-1.504-1.801-2.496
			c-0.411-0.991-0.667-2.032-0.77-3.122c-0.103-1.089-0.153-2.724-0.153-4.902V222z M40.552,252.629v7.229H26.06v4.275h-3.625
			v-15.798h3.625v4.293H40.552z M40.216,278.138c-0.478,1.368-1.086,2.265-1.824,2.688c-0.738,0.424-1.787,0.636-3.145,0.636h-1.187
			v-6.715h2.204c0.68,0,1.115-0.094,1.31-0.283c0.194-0.188,0.291-0.523,0.291-1.004c0-0.481-0.123-0.839-0.369-1.074
			c-0.246-0.234-0.611-0.352-1.097-0.352c-1.066,0-1.764,0.224-2.092,0.67c-0.329,0.458-0.877,1.586-1.646,3.383
			c-0.776,1.797-1.339,2.988-1.69,3.571c-0.35,0.584-0.835,1.068-1.454,1.451c-0.619,0.384-1.41,0.575-2.372,0.575
			c-1.389,0-2.402-0.271-3.044-0.815s-1.144-1.422-1.505-2.636c-0.362-1.213-0.543-2.679-0.543-4.396
			c0-1.877,0.197-3.477,0.593-4.799s0.894-2.198,1.494-2.628c0.601-0.429,1.62-0.644,3.061-0.644h0.716v6.714h-1.343
			c-0.626,0-1.025,0.086-1.197,0.258c-0.171,0.172-0.257,0.458-0.257,0.858c0,0.436,0.115,0.765,0.347,0.987
			c0.231,0.224,0.583,0.335,1.053,0.335c0.604,0,1.06-0.125,1.366-0.376c0.307-0.24,0.676-0.921,1.107-2.043
			c1.245-3.219,2.266-5.245,3.064-6.081s2.086-1.254,3.861-1.254c1.29,0,2.241,0.232,2.854,0.695
			c0.611,0.464,1.124,1.36,1.538,2.688c0.414,1.328,0.621,2.874,0.621,4.637C40.932,275.119,40.692,276.771,40.216,278.138z
			 M42.405,242.277h-5.393v-31.688h5.393V242.277z M44.57,210.588h4.034c2.604,0,4.365,0.183,5.283,0.548
			c0.918,0.366,1.616,0.966,2.095,1.801c0.478,0.836,0.776,1.766,0.896,2.789c0.119,1.024,0.179,3.037,0.179,6.039v11.098
			c0,2.845-0.087,4.746-0.262,5.705c-0.176,0.959-0.48,1.71-0.916,2.251c-0.436,0.542-0.974,0.92-1.613,1.136
			c-0.641,0.215-1.605,0.322-2.896,0.322H44.57V210.588z M57.518,269.881c0,3.49-0.03,5.735-0.091,6.733s-0.336,1.899-0.826,2.703
			c-0.49,0.805-1.154,1.361-1.992,1.67c-0.838,0.31-2.102,0.464-3.788,0.464h-3.815v-6.098c0.459,0.043,0.79,0.064,0.995,0.064
			c0.543,0,0.971-0.158,1.284-0.474c0.314-0.316,0.495-0.704,0.543-1.164c0.049-0.459,0.072-1.35,0.072-2.671v-24.54h7.618V269.881z
			 M59.229,213.505c0.405-1.122,1.061-2,1.966-2.633s1.998-0.949,3.278-0.949c1.4,0,2.594,0.346,3.58,1.037s1.64,1.563,1.96,2.613
			c0.32,1.05,0.48,2.835,0.48,5.353v1.253h-5.008v-2.349c0-1.096-0.064-1.794-0.192-2.095c-0.128-0.3-0.342-0.45-0.641-0.45
			c-0.324,0-0.57,0.203-0.736,0.607c-0.167,0.405-0.25,1.019-0.25,1.842c0,1.058,0.094,1.854,0.281,2.389
			c0.179,0.536,0.687,1.182,1.523,1.938c2.4,2.178,3.912,3.964,4.535,5.36s0.936,3.647,0.936,6.753c0,2.258-0.173,3.921-0.519,4.991
			c-0.347,1.069-1.015,1.967-2.005,2.691c-0.99,0.724-2.144,1.086-3.458,1.086c-1.443,0-2.675-0.418-3.695-1.253
			s-1.688-1.898-2.005-3.19c-0.315-1.292-0.474-3.125-0.474-5.5v-2.074h5.008v3.855c0,1.188,0.07,1.951,0.212,2.29
			c0.141,0.34,0.391,0.509,0.749,0.509s0.625-0.215,0.801-0.646c0.175-0.431,0.263-1.07,0.263-1.918c0-1.866-0.167-3.086-0.5-3.66
			c-0.342-0.574-1.183-1.533-2.523-2.878c-1.341-1.356-2.229-2.342-2.664-2.955s-0.796-1.462-1.082-2.545s-0.43-2.466-0.43-4.149
			C58.62,216.402,58.823,214.627,59.229,213.505z M70.206,281.452l-0.408-6.27h-2.726l-0.458,6.27h-7.875l3.886-34.882h11.01
			l4.356,34.882H70.206z M96.294,281.452h-6.677l-3.963-15.857v15.857h-6.369V246.57h6.369l4.271,15.706V246.57h6.369V281.452z"/>
	</g>
</g>
</svg>
