<?xml version="1.0" encoding="utf-8"?>
<!-- Generator: Adobe Illustrator 16.0.0, SVG Export Plug-In . SVG Version: 6.00 Build 0)  -->
<!DOCTYPE svg PUBLIC "-//W3C//DTD SVG 1.1//EN" "http://www.w3.org/Graphics/SVG/1.1/DTD/svg11.dtd">
<svg version="1.1" id="Layer_1" xmlns="http://www.w3.org/2000/svg" xmlns:xlink="http://www.w3.org/1999/xlink" x="0px" y="0px"
	 width="333.929px" height="331.868px" viewBox="0 0 333.929 331.868" enable-background="new 0 0 333.929 331.868"
	 xml:space="preserve">
<g>
	<g>
		<path fill="#FFFFFF" d="M190.945,250.328h8.773c-1.289-13.217-2.586-29.557-3.883-49.014
			C193.238,223.66,191.609,240,190.945,250.328z"/>
		<path fill="#FFFFFF" d="M141.324,70.634c-0.715-0.631-2.057-0.95-4.025-0.95v69.74c2.598,0,4.197-0.797,4.797-2.39
			c0.602-1.593,0.9-5.925,0.9-12.999V82.846c0-4.801-0.1-7.879-0.299-9.231C142.498,72.26,142.039,71.268,141.324,70.634z"/>
		<path fill="#FFFFFF" d="M285.135,25.465H49.842c-12.998,0-23.529,10.536-23.529,23.529v235.294
			c0,12.992,10.531,23.529,23.529,23.529h235.293c12.998,0,23.529-10.537,23.529-23.529V48.995
			C308.664,36.001,298.133,25.465,285.135,25.465z M213.145,51.547h30.08v21.216h-12.041v20.101h11.268v20.168h-11.268v23.312h13.24
			v21.216h-31.279V51.547z M168.301,61.302c1.355-3.753,3.547-6.688,6.578-8.805c3.025-2.117,6.684-3.177,10.967-3.177
			c4.686,0,8.678,1.158,11.977,3.472c3.299,2.313,5.486,5.227,6.557,8.74c1.072,3.514,1.607,9.485,1.607,17.911v4.191h-16.754
			v-7.858c0-3.667-0.215-6.002-0.645-7.007c-0.426-1.005-1.143-1.508-2.141-1.508c-1.086,0-1.906,0.677-2.463,2.035
			c-0.559,1.354-0.838,3.407-0.838,6.158c0,3.538,0.313,6.204,0.941,7.993c0.598,1.792,2.297,3.952,5.098,6.482
			c8.031,7.283,13.088,13.26,15.172,17.933c2.086,4.672,3.127,12.203,3.127,22.592c0,7.552-0.576,13.119-1.734,16.697
			c-1.156,3.582-3.391,6.581-6.705,9.004c-3.316,2.423-7.17,3.633-11.568,3.633c-4.828,0-8.949-1.397-12.363-4.191
			c-3.416-2.791-5.648-6.352-6.707-10.674c-1.055-4.319-1.586-10.453-1.586-18.4v-6.939h16.756v12.898
			c0,3.974,0.236,6.529,0.707,7.663c0.473,1.137,1.305,1.704,2.506,1.704s2.094-0.72,2.678-2.16
			c0.586-1.443,0.879-3.581,0.879-6.418c0-6.244-0.557-10.325-1.672-12.246c-1.143-1.92-3.955-5.128-8.439-9.625
			c-4.486-4.541-7.459-7.834-8.914-9.887c-1.457-2.053-2.664-4.89-3.621-8.515c-0.959-3.621-1.436-8.25-1.436-13.881
			C166.264,70.995,166.943,65.058,168.301,61.302z M45.084,89.721c0-10.125,0.357-17.481,1.072-22.065
			c0.713-4.586,2.764-8.787,6.148-12.607c3.385-3.818,7.76-5.729,13.133-5.729c5.283,0,9.67,1.661,13.154,4.976
			c3.486,3.318,5.756,7.261,6.813,11.82c1.057,4.562,1.588,11.189,1.588,19.875v4.583H68.949v-9.626
			c0-6.066-0.168-9.865-0.512-11.394c-0.344-1.526-1.158-2.292-2.445-2.292c-1.111,0-1.867,0.656-2.27,1.967
			c-0.402,1.308-0.6,4.669-0.6,10.083v50.879c0,4.761,0.197,7.892,0.6,9.396c0.402,1.507,1.201,2.261,2.398,2.261
			c1.314,0,2.209-0.852,2.678-2.556c0.473-1.7,0.709-5.018,0.709-9.954v-12.57h-3.643v-16.109h21.127v56.903h-11.34l-1.666-7.595
			c-1.229,3.275-2.781,5.729-4.654,7.368c-1.871,1.636-4.08,2.454-6.623,2.454c-3.033,0-5.871-1.124-8.514-3.373
			c-2.645-2.246-4.65-5.03-6.023-8.349c-1.373-3.315-2.23-6.798-2.574-10.444c-0.344-3.644-0.514-9.112-0.514-16.404V89.721z
			 M106.682,193.713V217.9H58.199v14.305H46.07V179.35h12.129v14.363H106.682z M105.559,279.057
			c-1.598,4.576-3.631,7.572-6.104,8.992c-2.469,1.414-5.977,2.123-10.518,2.123h-3.971v-22.463h7.377
			c2.271,0,3.732-0.316,4.379-0.947c0.648-0.631,0.973-1.754,0.973-3.361c0-1.609-0.408-2.807-1.234-3.59
			c-0.822-0.785-2.045-1.178-3.67-1.178c-3.568,0-5.9,0.744-7,2.24c-1.096,1.531-2.932,5.307-5.502,11.316
			c-2.596,6.016-4.48,9.998-5.652,11.949c-1.174,1.955-2.799,3.572-4.869,4.855c-2.072,1.285-4.719,1.924-7.936,1.924
			c-4.645,0-8.035-0.908-10.184-2.729c-2.148-1.816-3.822-4.758-5.037-8.818c-1.209-4.059-1.813-8.961-1.813-14.705
			c0-6.283,0.662-11.637,1.982-16.057c1.322-4.424,2.99-7.357,5-8.793c2.006-1.434,5.422-2.154,10.238-2.154h2.396v22.463h-4.494
			c-2.096,0-3.432,0.289-4.006,0.861c-0.572,0.576-0.861,1.535-0.861,2.873c0,1.455,0.387,2.559,1.162,3.303
			c0.775,0.748,1.949,1.121,3.52,1.121c2.025,0,3.549-0.42,4.572-1.258c1.023-0.803,2.262-3.08,3.707-6.836
			c4.164-10.766,7.578-17.549,10.25-20.344c2.672-2.797,6.977-4.193,12.918-4.193c4.316,0,7.5,0.775,9.547,2.324
			c2.045,1.555,3.762,4.551,5.146,8.992c1.385,4.443,2.076,9.615,2.076,15.512C107.953,268.955,107.154,274.479,105.559,279.057z
			 M112.016,157.561H93.975V51.547h18.041V157.561z M159.303,253.283c0,11.678-0.102,19.186-0.303,22.525
			c-0.203,3.34-1.125,6.354-2.766,9.047c-1.641,2.691-3.863,4.553-6.666,5.586c-2.803,1.035-7.027,1.551-12.672,1.551h-12.764
			v-20.398c1.533,0.143,2.641,0.213,3.328,0.213c1.816,0,3.25-0.525,4.297-1.584c1.053-1.057,1.656-2.355,1.818-3.893
			c0.162-1.539,0.242-4.518,0.242-8.938v-82.099h25.484V253.283z M161.037,126.066c0,9.516-0.295,15.879-0.881,19.087
			c-0.584,3.211-1.605,5.72-3.063,7.53c-1.455,1.814-3.258,3.079-5.398,3.799c-2.143,0.72-5.371,1.079-9.686,1.079h-22.754V51.547
			h13.498c8.715,0,14.605,0.609,17.676,1.832c3.072,1.223,5.406,3.232,7.008,6.026c1.598,2.794,2.6,5.904,2.998,9.329
			c0.4,3.428,0.602,10.163,0.602,20.202V126.066z M201.754,291.992l-1.367-20.975h-9.117l-1.533,20.975h-26.348l13-116.699h36.836
			l14.572,116.699H201.754z M289.029,291.992h-22.338l-13.256-53.053v53.053h-21.309V175.293h21.309l14.285,52.546v-52.546h21.309
			V291.992z M289.887,157.561h-15.811l-9.385-48.192v48.192h-15.082V51.547h15.082l10.113,47.736V51.547h15.082V157.561z"/>
	</g>
	<g>
		<path fill="#FFFFFF" d="M284.229,325.934H49.701c-23.564,0-42.736-19.059-42.736-42.484V48.418
			c0-23.425,19.172-42.484,42.736-42.484h234.527c23.563,0,42.736,19.06,42.736,42.484v235.031
			C326.965,306.875,307.791,325.934,284.229,325.934z M49.701,15.346c-18.377,0-33.326,14.837-33.326,33.073v235.031
			c0,18.236,14.949,33.074,33.326,33.074h234.527c18.375,0,33.324-14.838,33.324-33.074V48.418
			c0-18.235-14.949-33.073-33.324-33.073H49.701z"/>
	</g>
</g>
</svg>
